<svg id="drzewo" xmlns="http://www.w3.org/2000/svg" xmlns:xlink="http://www.w3.org/1999/xlink" viewBox="0 0 122.5 146.02"><defs><style>.cls-1{fill:url(#Gradient_bez_nazwy_134);}.cls-2{fill:url(#Gradient_bez_nazwy_134-2);}.cls-3{fill:url(#Gradient_bez_nazwy_134-3);}.cls-4{fill:url(#Gradient_bez_nazwy_134-4);}.cls-5{fill:url(#Gradient_bez_nazwy_134-5);}.cls-6{fill:url(#Gradient_bez_nazwy_134-6);}.cls-7{fill:url(#Gradient_bez_nazwy_134-7);}.cls-8{fill:url(#Gradient_bez_nazwy_134-8);}.cls-9{fill:url(#Gradient_bez_nazwy_134-9);}.cls-10{fill:url(#Gradient_bez_nazwy_134-10);}.cls-11{fill:url(#Gradient_bez_nazwy_134-11);}.cls-12{fill:url(#Gradient_bez_nazwy_134-12);}.cls-13{fill:url(#Gradient_bez_nazwy_134-13);}.cls-14{fill:url(#Gradient_bez_nazwy_134-14);}.cls-15{fill:url(#Gradient_bez_nazwy_134-15);}.cls-16{fill:url(#Gradient_bez_nazwy_134-16);}.cls-17{fill:url(#Gradient_bez_nazwy_134-17);}</style><linearGradient id="Gradient_bez_nazwy_134" x1="180.5" y1="336.44" x2="180.5" y2="336.44" gradientUnits="userSpaceOnUse"><stop offset="0.09" stop-color="#655c56"/><stop offset="0.17" stop-color="#655c56"/><stop offset="0.31" stop-color="#655c56"/><stop offset="0.4" stop-color="#5f5651"/><stop offset="0.68" stop-color="#4e4642"/><stop offset="0.82" stop-color="#4b4440"/><stop offset="0.92" stop-color="#48413e"/></linearGradient><linearGradient id="Gradient_bez_nazwy_134-2" x1="182.72" y1="304.42" x2="220.79" y2="326.4" xlink:href="#Gradient_bez_nazwy_134"/><linearGradient id="Gradient_bez_nazwy_134-3" x1="236.42" y1="239.61" x2="249.46" y2="247.13" xlink:href="#Gradient_bez_nazwy_134"/><linearGradient id="Gradient_bez_nazwy_134-4" x1="212.92" y1="256.7" x2="225.96" y2="264.22" xlink:href="#Gradient_bez_nazwy_134"/><linearGradient id="Gradient_bez_nazwy_134-5" x1="220.34" y1="211.95" x2="239.03" y2="222.74" xlink:href="#Gradient_bez_nazwy_134"/><linearGradient id="Gradient_bez_nazwy_134-6" x1="205.12" y1="233.38" x2="218.76" y2="241.25" xlink:href="#Gradient_bez_nazwy_134"/><linearGradient id="Gradient_bez_nazwy_134-7" x1="231.25" y1="264.93" x2="252.81" y2="277.38" xlink:href="#Gradient_bez_nazwy_134"/><linearGradient id="Gradient_bez_nazwy_134-8" x1="208.24" y1="281.64" x2="230.87" y2="294.71" xlink:href="#Gradient_bez_nazwy_134"/><linearGradient id="Gradient_bez_nazwy_134-9" x1="189.56" y1="261.35" x2="205.32" y2="270.45" xlink:href="#Gradient_bez_nazwy_134"/><linearGradient id="Gradient_bez_nazwy_134-10" x1="192.13" y1="257.38" x2="192.13" y2="257.38" xlink:href="#Gradient_bez_nazwy_134"/><linearGradient id="Gradient_bez_nazwy_134-11" x1="157.54" y1="213.3" x2="170.73" y2="220.91" xlink:href="#Gradient_bez_nazwy_134"/><linearGradient id="Gradient_bez_nazwy_134-12" x1="188.99" y1="201.89" x2="204.74" y2="210.99" xlink:href="#Gradient_bez_nazwy_134"/><linearGradient id="Gradient_bez_nazwy_134-13" x1="136.54" y1="236.12" x2="161.16" y2="250.34" xlink:href="#Gradient_bez_nazwy_134"/><linearGradient id="Gradient_bez_nazwy_134-14" x1="162.83" y1="254.39" x2="187.49" y2="268.63" xlink:href="#Gradient_bez_nazwy_134"/><linearGradient id="Gradient_bez_nazwy_134-15" x1="171.37" y1="230.59" x2="193.88" y2="243.59" xlink:href="#Gradient_bez_nazwy_134"/><linearGradient id="Gradient_bez_nazwy_134-16" x1="138.12" y1="263.92" x2="163.66" y2="278.67" xlink:href="#Gradient_bez_nazwy_134"/><linearGradient id="Gradient_bez_nazwy_134-17" x1="159.97" y1="281.94" x2="185.4" y2="296.63" xlink:href="#Gradient_bez_nazwy_134"/></defs><title>drzewowsvg</title><path class="cls-1" d="M180.5,336.44" transform="translate(-135.26 -190.42)"/><path class="cls-2" d="M180.5,336.44H215a73.9,73.9,0,0,1-8.12-13.19c-10.07-21-8.47-43.63-9.38-43.58-.12,0-.26.39-.37,2.08,0-1.62-.07-2-.13-2-.32,0-.36,10.91-2.87,23.54a87.27,87.27,0,0,1-6.25,20.38A79.39,79.39,0,0,1,180.5,336.44Z" transform="translate(-135.26 -190.42)"/><path class="cls-3" d="M233.66,256.29c.89.79,2.59.14,5.75-1.08,2.65-1,4.72-1.84,6.84-3.83a15.28,15.28,0,0,0,2.87-3.67,17.67,17.67,0,0,0,1.63-5.13,44.31,44.31,0,0,0,.75-6.37c.39-5.31.08-6.19-.5-6.5-.38-.2-.77-.12-1.63.12a27.52,27.52,0,0,0-5.5,1.88,17.77,17.77,0,0,0-5.5,4.87,22.54,22.54,0,0,0-4.12,9.25c-.09.4-.26,1.84-.59,4.71C233.13,255.1,233.15,255.84,233.66,256.29Z" transform="translate(-135.26 -190.42)"/><path class="cls-4" d="M210.17,273.38c.88.8,2.59.14,5.75-1.08a18.7,18.7,0,0,0,6.83-3.83,15.23,15.23,0,0,0,2.88-3.67,18,18,0,0,0,1.62-5.12,41.93,41.93,0,0,0,.75-6.38c.4-5.31.08-6.19-.5-6.5-.38-.2-.77-.12-1.62.13a26.57,26.57,0,0,0-5.5,1.87,17.4,17.4,0,0,0-5.5,4.88,22.48,22.48,0,0,0-4.13,9.25c-.08.4-.25,1.83-.58,4.7C209.64,272.2,209.66,272.93,210.17,273.38Z" transform="translate(-135.26 -190.42)"/><path class="cls-5" d="M232.21,232.93c1.19,0,2-1.67,3.47-4.72,1.23-2.55,2.19-4.56,2.37-7.46a14.72,14.72,0,0,0-.4-4.64,17.61,17.61,0,0,0-2.3-4.86,41.33,41.33,0,0,0-3.81-5.17c-3.33-4.16-4.16-4.58-4.8-4.41-.41.11-.64.43-1.1,1.2A26.8,26.8,0,0,0,222.9,208a17.72,17.72,0,0,0-.7,7.32,22.56,22.56,0,0,0,3.3,9.57c.21.35,1.07,1.52,2.79,3.84C231,232.42,231.53,232.94,232.21,232.93Z" transform="translate(-135.26 -190.42)"/><path class="cls-6" d="M205.34,251.68c1,.61,2.57-.35,5.45-2.14,2.41-1.49,4.29-2.68,6-5a14.93,14.93,0,0,0,2.14-4.13,17.39,17.39,0,0,0,.64-5.34,42.07,42.07,0,0,0-.45-6.41c-.6-5.29-1.07-6.09-1.7-6.29-.41-.13-.77,0-1.57.43a26.86,26.86,0,0,0-5.06,2.86,17.6,17.6,0,0,0-4.49,5.82,22.33,22.33,0,0,0-2.33,9.85c0,.41.09,1.85.3,4.74C204.6,250.61,204.75,251.33,205.34,251.68Z" transform="translate(-135.26 -190.42)"/><path class="cls-7" d="M226.43,273.57c0,1.19,1.65,2,4.68,3.5a18.87,18.87,0,0,0,7.45,2.44,15,15,0,0,0,4.65-.37,17.5,17.5,0,0,0,4.87-2.27,42.5,42.5,0,0,0,5.2-3.76c4.18-3.3,4.61-4.13,4.45-4.76-.11-.42-.43-.65-1.19-1.12a27.67,27.67,0,0,0-5.1-2.78,17.63,17.63,0,0,0-7.32-.75,22.57,22.57,0,0,0-9.6,3.22c-.35.21-1.52,1.06-3.86,2.76C226.94,272.37,226.42,272.89,226.43,273.57Z" transform="translate(-135.26 -190.42)"/><path class="cls-8" d="M203.79,289.58c-.07,1.19,1.51,2.1,4.44,3.81,2.45,1.43,4.38,2.53,7.26,2.93a14.81,14.81,0,0,0,4.66-.05,17.79,17.79,0,0,0,5-1.93,43.75,43.75,0,0,0,5.44-3.41c4.39-3,4.88-3.8,4.76-4.45-.08-.42-.39-.67-1.12-1.19a26.33,26.33,0,0,0-4.9-3.12,17.49,17.49,0,0,0-7.24-1.24,22.52,22.52,0,0,0-9.8,2.56c-.36.19-1.59,1-4,2.49C204.38,288.42,203.82,288.9,203.79,289.58Z" transform="translate(-135.26 -190.42)"/><path class="cls-9" d="M197.13,281.75c1,.09,2.24-1.79,4.75-5.56,2.23-3.37,2.65-4.5,2.91-5.4a13.94,13.94,0,0,0,.5-4.64,17.47,17.47,0,0,0-1.33-5.21,43.67,43.67,0,0,0-2.73-5.8c-1.85-3.53-2.87-5.26-3.86-5.26s-1.76,1.23-3.28,3.66a27,27,0,0,0-2,3.84,24.63,24.63,0,0,0-1.84,5c-.8,4,.44,7.41,1.38,10a36.19,36.19,0,0,0,2,4.3C195.34,280,196.19,281.66,197.13,281.75Z" transform="translate(-135.26 -190.42)"/><path class="cls-10" d="M192.13,257.38" transform="translate(-135.26 -190.42)"/><path class="cls-11" d="M161.35,232.84c-1.18-.07-1.93-1.73-3.31-4.83a18.7,18.7,0,0,1-2.14-7.53,14.94,14.94,0,0,1,.55-4.63,17.42,17.42,0,0,1,2.46-4.78,42.22,42.22,0,0,1,4-5c3.47-4.05,4.31-4.44,4.94-4.25.41.12.63.45,1.07,1.23a26.5,26.5,0,0,1,2.57,5.21,17.54,17.54,0,0,1,.46,7.33,22.39,22.39,0,0,1-3.6,9.47c-.22.34-1.11,1.48-2.9,3.75C162.56,232.37,162,232.87,161.35,232.84Z" transform="translate(-135.26 -190.42)"/><path class="cls-12" d="M196.55,222.28c1,.1,2.25-1.79,4.75-5.56,2.23-3.37,2.66-4.49,2.91-5.4a13.69,13.69,0,0,0,.51-4.63,18,18,0,0,0-1.33-5.21,42.16,42.16,0,0,0-2.74-5.81c-1.85-3.53-2.86-5.26-3.86-5.25s-1.76,1.22-3.28,3.65a28.15,28.15,0,0,0-2,3.84,25.31,25.31,0,0,0-1.84,5c-.8,3.95.44,7.41,1.39,10a38.29,38.29,0,0,0,2,4.31C194.76,220.55,195.62,222.2,196.55,222.28Z" transform="translate(-135.26 -190.42)"/><path class="cls-13" d="M157.63,256.33c-.89.79-2.59.13-5.74-1.11a18.65,18.65,0,0,1-6.82-3.86,15.08,15.08,0,0,1-2.86-3.68,17.68,17.68,0,0,1-1.6-5.13,42.56,42.56,0,0,1-.72-6.38c-.38-5.31-.06-6.19.52-6.5.38-.2.77-.11,1.63.14a27,27,0,0,1,5.49,1.89,17.74,17.74,0,0,1,5.48,4.9,22.5,22.5,0,0,1,4.08,9.27c.09.4.25,1.84.57,4.71C158.17,255.15,158.14,255.88,157.63,256.33Z" transform="translate(-135.26 -190.42)"/><path class="cls-14" d="M184,274.58c-.88.79-2.59.13-5.75-1.09a18.8,18.8,0,0,1-6.83-3.84,15.28,15.28,0,0,1-2.87-3.67,18,18,0,0,1-1.62-5.13,43.31,43.31,0,0,1-.74-6.37c-.39-5.32-.07-6.19.51-6.5.37-.21.76-.12,1.62.12a27.28,27.28,0,0,1,5.5,1.88,17.7,17.7,0,0,1,5.49,4.88,22.51,22.51,0,0,1,4.12,9.26c.08.4.25,1.84.58,4.71C184.52,273.39,184.5,274.12,184,274.58Z" transform="translate(-135.26 -190.42)"/><path class="cls-15" d="M189.18,251.5c-1,.64-2.57-.28-5.5-2a18.59,18.59,0,0,1-6.14-4.87,15.06,15.06,0,0,1-2.25-4.07,17.61,17.61,0,0,1-.79-5.32,43.1,43.1,0,0,1,.27-6.41c.46-5.31.91-6.13,1.53-6.34.4-.14.77,0,1.58.38A27.89,27.89,0,0,1,183,225.6a17.73,17.73,0,0,1,4.65,5.69,22.5,22.5,0,0,1,2.6,9.79c0,.41,0,1.85-.17,4.74C189.89,250.41,189.76,251.13,189.18,251.5Z" transform="translate(-135.26 -190.42)"/><path class="cls-16" d="M166.76,272.93c0,1.18-1.57,2.06-4.55,3.68-2.49,1.35-4.45,2.4-7.34,2.72a15,15,0,0,1-4.66-.18,17.56,17.56,0,0,1-5-2.08,42.08,42.08,0,0,1-5.35-3.55c-4.31-3.14-4.77-3.95-4.63-4.59.09-.42.41-.66,1.15-1.16a26.87,26.87,0,0,1,5-3,17.51,17.51,0,0,1,7.27-1,22.47,22.47,0,0,1,9.72,2.84c.36.19,1.57,1,4,2.6C166.2,271.75,166.75,272.24,166.76,272.93Z" transform="translate(-135.26 -190.42)"/><path class="cls-17" d="M188.58,290.73c0,1.19-1.55,2.08-4.51,3.74-2.47,1.38-4.42,2.45-7.31,2.81a15.05,15.05,0,0,1-4.66-.13,17.45,17.45,0,0,1-5-2,42.25,42.25,0,0,1-5.39-3.49c-4.34-3.09-4.81-3.89-4.68-4.53.08-.42.4-.67,1.13-1.18a26.73,26.73,0,0,1,5-3,17.62,17.62,0,0,1,7.26-1.12,22.46,22.46,0,0,1,9.75,2.72c.37.19,1.58,1,4,2.56C188,289.57,188.55,290.05,188.58,290.73Z" transform="translate(-135.26 -190.42)"/></svg>